<svg width="20" height="20" viewBox="0 0 20 20" fill="none" xmlns="http://www.w3.org/2000/svg">
<g id="fav-20">
<path id="Vector 348 (Stroke)" fill-rule="evenodd" clip-rule="evenodd" d="M5.38071 2.33333C3.14541 2.33333 1.33333 4.14541 1.33333 6.38071C1.33333 7.45414 1.75975 8.48361 2.51878 9.24264L10 16.7239L17.4812 9.24264C18.2402 8.48361 18.6667 7.45414 18.6667 6.38071C18.6667 4.14541 16.8546 2.33333 14.6193 2.33333C13.5459 2.33333 12.5164 2.75975 11.7574 3.51878L10.4714 4.80474C10.2111 5.06509 9.78895 5.06509 9.5286 4.80474L8.24264 3.51878C7.48361 2.75975 6.45414 2.33333 5.38071 2.33333ZM0 6.38071C0 3.40903 2.40903 1 5.38071 1C6.80777 1 8.17637 1.5669 9.18545 2.57597L10 3.39052L10.8146 2.57597C11.8236 1.56689 13.1922 1 14.6193 1C17.591 1 20 3.40903 20 6.38071C20 7.80777 19.4331 9.17637 18.424 10.1854L10.4714 18.1381C10.2111 18.3984 9.78895 18.3984 9.5286 18.1381L1.57597 10.1854C0.566893 9.17637 0 7.80777 0 6.38071Z" fill="#FF868E"/>
</g>
</svg>
